# xmcd
#
# Track frame offsets:
#	150
#	17450
#	43237
#	68531
#	87243
#	110477
#	129639
#	144321
#	168916
#	185718
#	203089
#	223299
#	240007
#	255353
#	277271
#
# Disc length: 3941 seconds
#
# Revision: 1
# Processed by: cddbd v1.5.1PL0 Copyright (c) Steve Scherf et al.
# Submitted via: audiograbber 1.83.01
#
DISCID=d30f630f
DTITLE=Ultimate Moods To Chillout - CD 8
DYEAR=2003
DGENRE=Ambient
TTITLE0=Mary Mc Dowell - Evacuee
TTITLE1=Tacoa - Moondance
TTITLE2=Ross Linley - The Kingfisher
TTITLE3=Chantal Blanc - Quand Je Pense A Toi
TTITLE4=Waititu - Olduvai´s Secret
TTITLE5=Mario Barchetta and Claudia Ponte - Vivo Per Lei
TTITLE6=Nancy Carr - If You Love Me
TTITLE7=Michael Baldwin Orchestra - The Celestine Theme
TTITLE8=Tacoa - Yaponcha´s Breeze
TTITLE9=Tumeric and Rubin - Why Go?
TTITLE10=Sharon Tully - Kyrie
TTITLE11=Mburu - Sorce De Ségou
TTITLE12=Kevin Toomey - Whispers
TTITLE13=Claudia Ponte - Only An Ocean Away
TTITLE14=Mario Barchetta - Melodramma
EXTD=
EXTT0=
EXTT1=
EXTT2=
EXTT3=
EXTT4=
EXTT5=
EXTT6=
EXTT7=
EXTT8=
EXTT9=
EXTT10=
EXTT11=
EXTT12=
EXTT13=
EXTT14=
PLAYORDER=
